name D:\school\WTK\thesis\model\3dpredictsim\Results\Batchsim_tmt_linear\Pog_s1_tmt_bCst_d05_k250_ig24_act.mot
datacolumns 128
datarows 4
range 1.87750253 1.91505258
endheader
time	pelvis_tilt	pelvis_list	pelvis_rotation	pelvis_tx	pelvis_ty	pelvis_tz	hip_flexion_l	hip_adduction_l	hip_rotation_l	hip_flexion_r	hip_adduction_r	hip_rotation_r	knee_angle_l	knee_angle_r	ankle_angle_l	ankle_angle_r	subtalar_angle_l	subtalar_angle_r	tmt_angle_l	tmt_angle_r	mtp_angle_l	mtp_angle_r	lumbar_extension	lumbar_bending	lumbar_rotation	arm_flex_l	arm_add_l	arm_rot_l	arm_flex_r	arm_add_r	arm_rot_r	elbow_flex_l	elbow_flex_r	pro_sup_l	pro_sup_r	glut_med1_l/activation	glut_med2_l/activation	glut_med3_l/activation	glut_min1_l/activation	glut_min2_l/activation	glut_min3_l/activation	semimem_l/activation	semiten_l/activation	bifemlh_l/activation	bifemsh_l/activation	sar_l/activation	add_long_l/activation	add_brev_l/activation	add_mag1_l/activation	add_mag2_l/activation	add_mag3_l/activation	tfl_l/activation	pect_l/activation	grac_l/activation	glut_max1_l/activation	glut_max2_l/activation	glut_max3_l/activation	iliacus_l/activation	psoas_l/activation	quad_fem_l/activation	gem_l/activation	peri_l/activation	rect_fem_l/activation	vas_med_l/activation	vas_int_l/activation	vas_lat_l/activation	med_gas_l/activation	lat_gas_l/activation	soleus_l/activation	tib_post_l/activation	flex_dig_l/activation	flex_hal_l/activation	tib_ant_l/activation	per_brev_l/activation	per_long_l/activation	per_tert_l/activation	ext_dig_l/activation	ext_hal_l/activation	ercspn_l/activation	intobl_l/activation	extobl_l/activation	glut_med1_r/activation	glut_med2_r/activation	glut_med3_r/activation	glut_min1_r/activation	glut_min2_r/activation	glut_min3_r/activation	semimem_r/activation	semiten_r/activation	bifemlh_r/activation	bifemsh_r/activation	sar_r/activation	add_long_r/activation	add_brev_r/activation	add_mag1_r/activation	add_mag2_r/activation	add_mag3_r/activation	tfl_r/activation	pect_r/activation	grac_r/activation	glut_max1_r/activation	glut_max2_r/activation	glut_max3_r/activation	iliacus_r/activation	psoas_r/activation	quad_fem_r/activation	gem_r/activation	peri_r/activation	rect_fem_r/activation	vas_med_r/activation	vas_int_r/activation	vas_lat_r/activation	med_gas_r/activation	lat_gas_r/activation	soleus_r/activation	tib_post_r/activation	flex_dig_r/activation	flex_hal_r/activation	tib_ant_r/activation	per_brev_r/activation	per_long_r/activation	per_tert_r/activation	ext_dig_r/activation	ext_hal_r/activation	ercspn_r/activation	intobl_r/activation	extobl_r/activation	
          1.87750253	         -2.92971373	          1.25875381	         -8.32722907	          2.34687816	          0.86220759	          0.00112668	         31.83260889	          0.95837540	          0.75500905	        -14.25334305	         -2.32212284	          8.49101305	        -14.78842461	        -19.42225864	          9.95852698	        -16.94828058	          0.69161537	         16.08207424	          0.10222208	          3.78039991	         -0.07847041	         32.45689688	          0.07144941	          1.24733278	          3.08582736	        -11.41659002	        -13.66902568	         14.59096228	          4.16045953	        -13.48806063	         18.77541477	         15.47428545	         43.40253927	         86.51662706	         86.51662706	          0.12121649	          0.05001473	          0.06043125	          0.05000279	          0.05000415	          0.05001748	          0.21877847	          0.06869594	          0.15315698	          0.06042832	          0.05000518	          0.05000787	          0.14692217	          0.18469660	          0.16745084	          0.13651431	          0.05001585	          0.05003372	          0.07079818	          0.07302757	          0.11611454	          0.12740650	          0.05007800	          0.05042121	          0.18667196	          0.05002640	          0.05000362	          0.05000053	          0.05001963	          0.06376263	          0.05009658	          0.06043073	          0.06043089	          0.06043061	          0.06043085	          0.06044015	          0.06043464	          0.46861459	          0.31425420	          0.20397097	          0.11111434	          0.51588217	          0.28377215	          0.05000028	          0.12191318	          0.11575097	          0.12342105	          0.06209147	          0.08654885	          0.15541282	          0.12251517	          0.08832744	          0.05001669	          0.05000159	          0.05000171	          0.05000175	          0.07307267	          0.14146583	          0.05004878	          0.05001408	          0.05001624	          0.05000605	          0.17823651	          0.05002913	          0.05000884	          0.05004558	          0.05003460	          0.05002779	          0.38142579	          0.59188668	          0.06712901	          0.05001983	          0.09124668	          0.31795637	          0.11642421	          0.11177984	          0.11503187	          0.12132188	          0.19804276	          0.05000030	          0.13914072	          0.17161492	          0.17830326	          0.15617945	          0.49368188	          0.39436672	          0.48213145	          0.43882022	          0.14271116	          0.05000012	          0.05089497	          0.05282064	
          1.89001921	         -2.92895427	          1.19844515	         -8.54530398	          2.36709849	          0.86050586	          0.00082986	         31.17710479	          1.21605158	          0.95577360	        -14.41707072	         -2.54878127	          8.15860279	        -14.92948420	        -20.59319943	          9.31423863	        -20.09683606	          0.27431521	         16.41455301	          0.13515849	          3.32649134	         -0.07067320	         33.80307397	          0.33249903	          1.10828211	          3.18550483	        -12.87691918	        -13.65583414	         14.67554970	          3.64959328	        -13.54100435	         18.90227622	         15.49450513	         44.60316088	         86.51662706	         86.51662706	          0.10029493	          0.05000466	          0.05000210	          0.05001776	          0.05001235	          0.05000563	          0.18101690	          0.05683912	          0.12672176	          0.05000101	          0.05000290	          0.05011745	          0.13868758	          0.28475766	          0.22263886	          0.15072578	          0.05000464	          0.05001990	          0.05858029	          0.06043038	          0.13851868	          0.15311527	          0.05000084	          0.05000108	          0.34177094	          0.06044644	          0.05844696	          0.07303691	          0.22648906	          0.22886477	          0.20121552	          0.05000017	          0.05000033	          0.05000005	          0.05000055	          0.05001084	          0.05000425	          0.66096829	          0.34263292	          0.21000059	          0.51544591	          0.61461266	          0.45941532	          0.05000015	          0.10087051	          0.09577191	          0.10211837	          0.05137545	          0.07161249	          0.12858840	          0.10136944	          0.07308342	          0.05004712	          0.06315096	          0.07302582	          0.05001271	          0.06046136	          0.20745290	          0.17918115	          0.23292802	          0.07584669	          0.08815778	          0.14747263	          0.05140735	          0.06611027	          0.05001689	          0.05001295	          0.05002008	          0.31559029	          0.48972492	          0.09320743	          0.07305219	          0.07550044	          0.26307587	          0.09633106	          0.09248862	          0.09517946	          0.10038126	          0.16385985	          0.05000008	          0.11512450	          0.14199366	          0.14752750	          0.32543638	          0.51729631	          0.38272816	          0.71769689	          0.58526475	          0.20962934	          0.05000076	          0.07303709	          0.06528159	
          1.90253590	         -2.92277139	          1.13796546	         -8.73013485	          2.38744721	          0.85829532	          0.00055944	         30.37960248	          1.46925081	          1.22109461	        -14.36159237	         -2.73131313	          7.81462548	        -15.63333573	        -22.19644278	          8.57947659	        -22.59353976	         -0.16079916	         16.64310051	         -0.06257534	          2.54136337	         -0.12808254	         33.79638933	          0.59090501	          0.95544333	          3.26560105	        -14.30094948	        -13.65380942	         14.85422648	          3.08607710	        -13.60914251	         18.95559059	         15.46075457	         45.79962550	         86.51662706	         86.51662706	          0.26320361	          0.23707078	          0.37956014	          0.05000569	          0.05000301	          0.05000263	          0.15430813	          0.08919883	          0.12072291	          0.05000174	          0.05002280	          0.07303770	          0.12986878	          0.23561123	          0.22075723	          0.17986286	          0.05000156	          0.06853560	          0.11297243	          0.05000108	          0.18663836	          0.17949989	          0.06042742	          0.05001680	          0.28278045	          0.05001530	          0.26812369	          0.06043052	          0.18739639	          0.18936208	          0.16648514	          0.06043045	          0.06043050	          0.06043055	          0.06043033	          0.06043102	          0.06043103	          0.56518351	          0.36345289	          0.20027000	          0.42647886	          0.62860331	          0.45068522	          0.05000118	          0.08346016	          0.07924131	          0.08449316	          0.06043283	          0.06043302	          0.10639400	          0.08387423	          0.06047249	          0.05004426	          0.06042924	          0.06043262	          0.05000111	          0.05002696	          0.17164637	          0.20487235	          0.19272497	          0.06276962	          0.07294380	          0.12201955	          0.05710357	          0.06045070	          0.06043660	          0.06043521	          0.06043488	          0.26111836	          0.43547175	          0.07712361	          0.06044970	          0.06246910	          0.21766798	          0.09168230	          0.07653512	          0.08518128	          0.08305512	          0.13557710	          0.06042321	          0.09525358	          0.11748518	          0.12206377	          0.31394305	          0.49434220	          0.35174650	          0.82200549	          0.75003191	          0.39612601	          0.07383177	          0.06043066	          0.05401426	
          1.91505258	         -2.91358004	          1.08437713	         -8.87762954	          2.40765142	          0.85578987	          0.00028581	         29.49288348	          1.71452525	          1.51190322	        -14.06390423	         -2.89156623	          7.47369295	        -16.42664457	        -24.25027713	          7.98532183	        -24.47177020	         -0.62186836	         16.74616586	         -0.03516208	          1.84078869	         -0.17253716	         31.87877068	          0.82761411	          0.78587536	          3.32808865	        -15.62008579	        -13.65513746	         15.15015460	          2.52033959	        -13.67991954	         18.94869958	         15.32913336	         46.92992812	         86.51662706	         86.51662706	          0.35582216	          0.40780715	          0.49392277	          0.13100266	          0.19080836	          0.31201850	          0.12767398	          0.09708533	          0.09988583	          0.07303671	          0.05000349	          0.06043140	          0.10745314	          0.19494575	          0.23157988	          0.19311110	          0.05000132	          0.05670852	          0.09347803	          0.28032013	          0.24902693	          0.21492212	          0.05000057	          0.05000052	          0.23397252	          0.05007801	          0.22185389	          0.05000023	          0.15505287	          0.23378665	          0.18356274	          0.05000010	          0.05000021	          0.05000003	          0.05000004	          0.05000106	          0.05000077	          0.72872505	          0.38956343	          0.19402037	          0.68735963	          0.72482451	          0.56989427	          0.06498299	          0.08827344	          0.06556397	          0.08829366	          0.05000232	          0.05000218	          0.17727104	          0.06941638	          0.05003577	          0.05001219	          0.05000107	          0.05000251	          0.05000215	          0.06043192	          0.14985410	          0.16951134	          0.15946063	          0.05193677	          0.06035412	          0.10096147	          0.06041695	          0.05001772	          0.05000894	          0.05000562	          0.05000414	          0.21750225	          0.43159631	          0.06381191	          0.05001691	          0.05168722	          0.18009787	          0.10668440	          0.10668712	          0.07048627	          0.06871957	          0.11217609	          0.05000020	          0.07881249	          0.09720707	          0.10099524	          0.32960272	          0.44205715	          0.32102302	          0.73990156	          0.85911205	          0.32775329	          0.10971707	          0.05000012	          0.05000033	
